<?xml version="1.0" encoding="UTF-8"?>
<!DOCTYPE svg PUBLIC "-//W3C//DTD SVG 1.1//EN" "http://www.w3.org/Graphics/SVG/1.1/DTD/svg11.dtd">
<!-- Creator: CorelDRAW 2020 (64-Bit) -->
<svg xmlns="http://www.w3.org/2000/svg" xml:space="preserve" width="100%" height="100%" version="1.1" style="shape-rendering:geometricPrecision; text-rendering:geometricPrecision; image-rendering:optimizeQuality; fill-rule:evenodd; clip-rule:evenodd"
viewBox="0 0 6878.82 8499.89"
 xmlns:xlink="http://www.w3.org/1999/xlink"
 xmlns:xodm="http://www.corel.com/coreldraw/odm/2003">
 <defs>
  <style type="text/css">
   <![CDATA[
    .fil0 {fill:#00387B}
    .fil1 {fill:#6EBEFF}
   ]]>
  </style>
   <mask id="id0">
  <linearGradient id="id1" gradientUnits="userSpaceOnUse" x1="3824.27" y1="408.35" x2="3439.63" y2="3409.64">
   <stop offset="0" style="stop-opacity:0; stop-color:white"/>
   <stop offset="1" style="stop-opacity:1; stop-color:white"/>
  </linearGradient>
    <rect style="fill:url(#id1)" x="3980.44" y="124.83" width="582.64" height="3302.05"/>
   </mask>
   <mask id="id2">
  <linearGradient id="id3" gradientUnits="userSpaceOnUse" x1="2874.44" y1="1022.19" x2="2489.8" y2="4023.48">
   <stop offset="0" style="stop-opacity:0; stop-color:white"/>
   <stop offset="1" style="stop-opacity:1; stop-color:white"/>
  </linearGradient>
    <rect style="fill:url(#id3)" x="3030.61" y="738.67" width="582.64" height="3302.05"/>
   </mask>
   <mask id="id4">
  <linearGradient id="id5" gradientUnits="userSpaceOnUse" x1="1924.57" y1="1653.71" x2="1539.93" y2="4655">
   <stop offset="0" style="stop-opacity:0; stop-color:white"/>
   <stop offset="1" style="stop-opacity:1; stop-color:white"/>
  </linearGradient>
    <rect style="fill:url(#id5)" x="2080.74" y="1370.19" width="582.64" height="3302.05"/>
   </mask>
 </defs>
 <g id="Слой_x0020_1">
  <metadata id="CorelCorpID_0Corel-Layer"/>
  <path class="fil0" d="M4880.57 1881.6c605.16,467.12 995.07,1199.66 995.07,2023.28 0,1410.89 -1143.74,2554.63 -2554.54,2554.63 -1410.89,0 -2554.62,-1143.74 -2554.62,-2554.63 0,-824.41 390.61,-1557.46 996.72,-2024.5 0,0 0,973.08 0,973.08 -202.85,300.13 -321.42,661.95 -321.42,1051.42 0,1037.91 841.42,1879.24 1879.32,1879.24 1037.91,0 1879.24,-841.33 1879.24,-1879.24 0,-388.43 -117.87,-749.37 -319.77,-1048.89 0,0 0,-974.39 0,-974.39z"/>
  <path class="fil0" d="M2717.43 1251.67c0,0 0,4142.36 0,4142.36 -277.27,-112.55 -515.9,-300.3 -690.74,-537.88 0,0 0,-3149.4 0,-3149.4 0,0 690.74,-455.08 690.74,-455.08z"/>
  <path class="fil0" d="M3667.3 625.84c0,0 0,4848.03 0,4848.03 -111.5,24.51 -227.37,37.43 -346.2,37.43 -118.31,0 -233.56,-12.83 -344.54,-37.08 0,0 0,-4393.3 0,-4393.3 0,0 690.74,-455.08 690.74,-455.08z"/>
  <path class="fil0" d="M4617.09 0c0,0 0,4853.97 0,4853.97 -174.59,238.19 -413.3,426.38 -690.66,539.37 0,0 0,-4938.25 0,-4938.25 0,0 690.66,-455.09 690.66,-455.09z"/>
  <path class="fil0" d="M3648.54 8499.89c0,0 0,-1144.96 0,-1144.96 0,0 784.45,0 784.45,0 0,0 477.51,-383.72 477.51,-383.72 -856.95,0 -1713.81,0 -2570.77,0 0,0 0,383.72 0,383.72 0,0 769.88,0 769.88,0 0,0 0,1144.96 0,1144.96 0,0 538.93,0 538.93,0z"/>
  <path class="fil0" d="M5115.1 8499.89c0,0 0,-597.65 0,-597.65 0,0 244.99,0 244.99,0 0,0 799.02,597.65 799.02,597.65 0,0 719.71,0 719.71,0 0,0 -1044.71,-781.4 -1044.71,-781.4 0,0 998.99,-747.28 998.99,-747.28 0,0 -715.87,0 -715.87,0 0,0 -763.77,571.3 -763.77,571.3 0,0 -238.36,0 -238.36,0 0,0 0,-539.1 0,-539.1 0,0 -538.85,432.57 -538.85,432.57 0,0 0,1063.91 0,1063.91 0,0 538.85,0 538.85,0z"/>
  <path class="fil0" d="M538.93 8499.89c0,0 0,-420.28 0,-420.28 0,0 37.34,0 37.34,0 0,0 420.45,0 420.45,0 0,0 745.71,0 745.71,0 230.95,0 419.75,-145.09 419.75,-322.29 0,0 0,-445.06 0,-445.06 0,-177.28 -188.8,-322.29 -419.75,-322.29 -580.81,0 -1161.62,0 -1742.43,0 0,0 0,359.72 0,359.72 514.07,0 1028.05,0 1542.11,0 67.18,0 122.15,50.78 122.15,112.82 0,0 0,143 0,143 0,62.03 -54.97,112.81 -122.15,112.81 -515.46,0 -1027.43,1.57 -1542.11,1.57 0,0 0,62.21 0,62.21 0,0 0,297.51 0,297.51 0,0 0,420.28 0,420.28 0,0 538.93,0 538.93,0z"/>
  <polygon class="fil1" style="mask:url(#id0)" points="4563.08,3047.4 3980.44,3426.88 3980.44,504.31 4563.08,124.83 "/>
  <polygon class="fil1" style="mask:url(#id2)" points="3613.25,3661.24 3030.61,4040.72 3030.61,1118.15 3613.25,738.67 "/>
  <polygon class="fil1" style="mask:url(#id4)" points="2663.38,4292.76 2080.74,4672.24 2080.74,1749.67 2663.38,1370.19 "/>
 </g>
</svg>
